<?xml version="1.0" encoding="UTF-8"?>
<svg xmlns="http://www.w3.org/2000/svg" viewBox="0 0 64 64" width="64" height="64">
  <defs>
    <clipPath id="moltrace-logo-hex"><polygon points="16,0 48,0 64,32 48,64 16,64 0,32"/></clipPath>
  </defs>
  <g clip-path="url(#moltrace-logo-hex)">
    <rect width="64" height="64" fill="#051f3a"/>
    <g><polygon points="9.633,7.675 5.000,10.350 0.367,7.675 0.367,2.325 5.000,-0.350 9.633,2.325" fill="none" stroke="#26C6FF" stroke-width="2" stroke-linecap="butt" stroke-linejoin="miter"/>
<polygon points="18.900,7.675 14.266,10.350 9.633,7.675 9.633,2.325 14.266,-0.350 18.900,2.325" fill="none" stroke="#26C6FF" stroke-width="2" stroke-linecap="butt" stroke-linejoin="miter"/>
<polygon points="28.166,7.675 23.533,10.350 18.900,7.675 18.900,2.325 23.533,-0.350 28.166,2.325" fill="none" stroke="#26C6FF" stroke-width="2" stroke-linecap="butt" stroke-linejoin="miter"/>
<polygon points="37.433,7.675 32.799,10.350 28.166,7.675 28.166,2.325 32.799,-0.350 37.433,2.325" fill="none" stroke="#26C6FF" stroke-width="2" stroke-linecap="butt" stroke-linejoin="miter"/>
<polygon points="46.699,7.675 42.066,10.350 37.433,7.675 37.433,2.325 42.066,-0.350 46.699,2.325" fill="none" stroke="#26C6FF" stroke-width="2" stroke-linecap="butt" stroke-linejoin="miter"/>
<polygon points="55.966,7.675 51.332,10.350 46.699,7.675 46.699,2.325 51.332,-0.350 55.966,2.325" fill="none" stroke="#26C6FF" stroke-width="2" stroke-linecap="butt" stroke-linejoin="miter"/>
<polygon points="14.266,15.700 9.633,18.375 5.000,15.700 5.000,10.350 9.633,7.675 14.266,10.350" fill="none" stroke="#26C6FF" stroke-width="2" stroke-linecap="butt" stroke-linejoin="miter"/>
<polygon points="23.533,15.700 18.900,18.375 14.266,15.700 14.266,10.350 18.900,7.675 23.533,10.350" fill="none" stroke="#26C6FF" stroke-width="2" stroke-linecap="butt" stroke-linejoin="miter"/>
<polygon points="32.799,15.700 28.166,18.375 23.533,15.700 23.533,10.350 28.166,7.675 32.799,10.350" fill="none" stroke="#26C6FF" stroke-width="2" stroke-linecap="butt" stroke-linejoin="miter"/>
<polygon points="42.066,15.700 37.433,18.375 32.799,15.700 32.799,10.350 37.433,7.675 42.066,10.350" fill="none" stroke="#26C6FF" stroke-width="2" stroke-linecap="butt" stroke-linejoin="miter"/>
<polygon points="51.332,15.700 46.699,18.375 42.066,15.700 42.066,10.350 46.699,7.675 51.332,10.350" fill="none" stroke="#26C6FF" stroke-width="2" stroke-linecap="butt" stroke-linejoin="miter"/>
<polygon points="60.599,15.700 55.966,18.375 51.332,15.700 51.332,10.350 55.966,7.675 60.599,10.350" fill="none" stroke="#26C6FF" stroke-width="2" stroke-linecap="butt" stroke-linejoin="miter"/>
<polygon points="9.633,23.725 5.000,26.400 0.367,23.725 0.367,18.375 5.000,15.700 9.633,18.375" fill="none" stroke="#26C6FF" stroke-width="2" stroke-linecap="butt" stroke-linejoin="miter"/>
<polygon points="18.900,23.725 14.266,26.400 9.633,23.725 9.633,18.375 14.266,15.700 18.900,18.375" fill="none" stroke="#26C6FF" stroke-width="2" stroke-linecap="butt" stroke-linejoin="miter"/>
<polygon points="28.166,23.725 23.533,26.400 18.900,23.725 18.900,18.375 23.533,15.700 28.166,18.375" fill="none" stroke="#26C6FF" stroke-width="2" stroke-linecap="butt" stroke-linejoin="miter"/>
<polygon points="37.433,23.725 32.799,26.400 28.166,23.725 28.166,18.375 32.799,15.700 37.433,18.375" fill="none" stroke="#26C6FF" stroke-width="2" stroke-linecap="butt" stroke-linejoin="miter"/>
<polygon points="46.699,23.725 42.066,26.400 37.433,23.725 37.433,18.375 42.066,15.700 46.699,18.375" fill="none" stroke="#26C6FF" stroke-width="2" stroke-linecap="butt" stroke-linejoin="miter"/>
<polygon points="55.966,23.725 51.332,26.400 46.699,23.725 46.699,18.375 51.332,15.700 55.966,18.375" fill="none" stroke="#26C6FF" stroke-width="2" stroke-linecap="butt" stroke-linejoin="miter"/>
<polygon points="14.266,31.750 9.633,34.425 5.000,31.750 5.000,26.400 9.633,23.725 14.266,26.400" fill="none" stroke="#26C6FF" stroke-width="2" stroke-linecap="butt" stroke-linejoin="miter"/>
<polygon points="23.533,31.750 18.900,34.425 14.266,31.750 14.266,26.400 18.900,23.725 23.533,26.400" fill="none" stroke="#26C6FF" stroke-width="2" stroke-linecap="butt" stroke-linejoin="miter"/>
<polygon points="32.799,31.750 28.166,34.425 23.533,31.750 23.533,26.400 28.166,23.725 32.799,26.400" fill="none" stroke="#26C6FF" stroke-width="2" stroke-linecap="butt" stroke-linejoin="miter"/>
<polygon points="42.066,31.750 37.433,34.425 32.799,31.750 32.799,26.400 37.433,23.725 42.066,26.400" fill="none" stroke="#26C6FF" stroke-width="2" stroke-linecap="butt" stroke-linejoin="miter"/>
<polygon points="51.332,31.750 46.699,34.425 42.066,31.750 42.066,26.400 46.699,23.725 51.332,26.400" fill="none" stroke="#26C6FF" stroke-width="2" stroke-linecap="butt" stroke-linejoin="miter"/>
<polygon points="60.599,31.750 55.966,34.425 51.332,31.750 51.332,26.400 55.966,23.725 60.599,26.400" fill="none" stroke="#26C6FF" stroke-width="2" stroke-linecap="butt" stroke-linejoin="miter"/>
<polygon points="9.633,39.775 5.000,42.450 0.367,39.775 0.367,34.425 5.000,31.750 9.633,34.425" fill="none" stroke="#26C6FF" stroke-width="2" stroke-linecap="butt" stroke-linejoin="miter"/>
<polygon points="18.900,39.775 14.266,42.450 9.633,39.775 9.633,34.425 14.266,31.750 18.900,34.425" fill="none" stroke="#26C6FF" stroke-width="2" stroke-linecap="butt" stroke-linejoin="miter"/>
<polygon points="28.166,39.775 23.533,42.450 18.900,39.775 18.900,34.425 23.533,31.750 28.166,34.425" fill="none" stroke="#26C6FF" stroke-width="2" stroke-linecap="butt" stroke-linejoin="miter"/>
<polygon points="37.433,39.775 32.799,42.450 28.166,39.775 28.166,34.425 32.799,31.750 37.433,34.425" fill="none" stroke="#26C6FF" stroke-width="2" stroke-linecap="butt" stroke-linejoin="miter"/>
<polygon points="46.699,39.775 42.066,42.450 37.433,39.775 37.433,34.425 42.066,31.750 46.699,34.425" fill="none" stroke="#26C6FF" stroke-width="2" stroke-linecap="butt" stroke-linejoin="miter"/>
<polygon points="55.966,39.775 51.332,42.450 46.699,39.775 46.699,34.425 51.332,31.750 55.966,34.425" fill="none" stroke="#26C6FF" stroke-width="2" stroke-linecap="butt" stroke-linejoin="miter"/>
<polygon points="14.266,47.800 9.633,50.475 5.000,47.800 5.000,42.450 9.633,39.775 14.266,42.450" fill="none" stroke="#26C6FF" stroke-width="2" stroke-linecap="butt" stroke-linejoin="miter"/>
<polygon points="23.533,47.800 18.900,50.475 14.266,47.800 14.266,42.450 18.900,39.775 23.533,42.450" fill="none" stroke="#26C6FF" stroke-width="2" stroke-linecap="butt" stroke-linejoin="miter"/>
<polygon points="32.799,47.800 28.166,50.475 23.533,47.800 23.533,42.450 28.166,39.775 32.799,42.450" fill="none" stroke="#26C6FF" stroke-width="2" stroke-linecap="butt" stroke-linejoin="miter"/>
<polygon points="42.066,47.800 37.433,50.475 32.799,47.800 32.799,42.450 37.433,39.775 42.066,42.450" fill="none" stroke="#26C6FF" stroke-width="2" stroke-linecap="butt" stroke-linejoin="miter"/>
<polygon points="51.332,47.800 46.699,50.475 42.066,47.800 42.066,42.450 46.699,39.775 51.332,42.450" fill="none" stroke="#26C6FF" stroke-width="2" stroke-linecap="butt" stroke-linejoin="miter"/>
<polygon points="60.599,47.800 55.966,50.475 51.332,47.800 51.332,42.450 55.966,39.775 60.599,42.450" fill="none" stroke="#26C6FF" stroke-width="2" stroke-linecap="butt" stroke-linejoin="miter"/>
<polygon points="9.633,55.825 5.000,58.500 0.367,55.825 0.367,50.475 5.000,47.800 9.633,50.475" fill="none" stroke="#26C6FF" stroke-width="2" stroke-linecap="butt" stroke-linejoin="miter"/>
<polygon points="18.900,55.825 14.266,58.500 9.633,55.825 9.633,50.475 14.266,47.800 18.900,50.475" fill="none" stroke="#26C6FF" stroke-width="2" stroke-linecap="butt" stroke-linejoin="miter"/>
<polygon points="28.166,55.825 23.533,58.500 18.900,55.825 18.900,50.475 23.533,47.800 28.166,50.475" fill="none" stroke="#26C6FF" stroke-width="2" stroke-linecap="butt" stroke-linejoin="miter"/>
<polygon points="37.433,55.825 32.799,58.500 28.166,55.825 28.166,50.475 32.799,47.800 37.433,50.475" fill="none" stroke="#26C6FF" stroke-width="2" stroke-linecap="butt" stroke-linejoin="miter"/>
<polygon points="46.699,55.825 42.066,58.500 37.433,55.825 37.433,50.475 42.066,47.800 46.699,50.475" fill="none" stroke="#26C6FF" stroke-width="2" stroke-linecap="butt" stroke-linejoin="miter"/>
<polygon points="55.966,55.825 51.332,58.500 46.699,55.825 46.699,50.475 51.332,47.800 55.966,50.475" fill="none" stroke="#26C6FF" stroke-width="2" stroke-linecap="butt" stroke-linejoin="miter"/></g>
    <text x="31.5" y="32" text-anchor="middle" dominant-baseline="central"
      font-family="system-ui, -apple-system, BlinkMacSystemFont, 'Segoe UI', sans-serif"
      font-weight="900" font-size="20" fill="#FFFFFF">m</text>
  </g>
</svg>