<?xml version="1.0" encoding="UTF-8"?>
<svg xmlns="http://www.w3.org/2000/svg" width="64" height="64" viewBox="0 0 64 64" fill="none" role="img" aria-labelledby="moltrace-mark-title">
  <title id="moltrace-mark-title">MolTrace logo</title>
  <defs>
    <clipPath id="moltrace-mark-hex" clipPathUnits="userSpaceOnUse">
      <polygon points="16,0 48,0 64,32 48,64 16,64 0,32"/>
    </clipPath>
    <g id="moltrace-mark-cells" fill="none" stroke="#26C6FF" stroke-width="2" stroke-linecap="butt" stroke-linejoin="miter" shape-rendering="geometricPrecision">
<polygon points="-8.900,-8.375 -13.533,-5.700 -18.166,-8.375 -18.166,-13.725 -13.533,-16.400 -8.900,-13.725"/>
<polygon points="0.367,-8.375 -4.266,-5.700 -8.900,-8.375 -8.900,-13.725 -4.266,-16.400 0.367,-13.725"/>
<polygon points="9.633,-8.375 5.000,-5.700 0.367,-8.375 0.367,-13.725 5.000,-16.400 9.633,-13.725"/>
<polygon points="18.900,-8.375 14.266,-5.700 9.633,-8.375 9.633,-13.725 14.266,-16.400 18.900,-13.725"/>
<polygon points="28.166,-8.375 23.533,-5.700 18.900,-8.375 18.900,-13.725 23.533,-16.400 28.166,-13.725"/>
<polygon points="37.433,-8.375 32.799,-5.700 28.166,-8.375 28.166,-13.725 32.799,-16.400 37.433,-13.725"/>
<polygon points="46.699,-8.375 42.066,-5.700 37.433,-8.375 37.433,-13.725 42.066,-16.400 46.699,-13.725"/>
<polygon points="55.966,-8.375 51.332,-5.700 46.699,-8.375 46.699,-13.725 51.332,-16.400 55.966,-13.725"/>
<polygon points="65.232,-8.375 60.599,-5.700 55.966,-8.375 55.966,-13.725 60.599,-16.400 65.232,-13.725"/>
<polygon points="-13.533,-0.350 -18.166,2.325 -22.799,-0.350 -22.799,-5.700 -18.166,-8.375 -13.533,-5.700"/>
<polygon points="-4.266,-0.350 -8.900,2.325 -13.533,-0.350 -13.533,-5.700 -8.900,-8.375 -4.266,-5.700"/>
<polygon points="5.000,-0.350 0.367,2.325 -4.266,-0.350 -4.266,-5.700 0.367,-8.375 5.000,-5.700"/>
<polygon points="14.266,-0.350 9.633,2.325 5.000,-0.350 5.000,-5.700 9.633,-8.375 14.266,-5.700"/>
<polygon points="23.533,-0.350 18.900,2.325 14.266,-0.350 14.266,-5.700 18.900,-8.375 23.533,-5.700"/>
<polygon points="32.799,-0.350 28.166,2.325 23.533,-0.350 23.533,-5.700 28.166,-8.375 32.799,-5.700"/>
<polygon points="42.066,-0.350 37.433,2.325 32.799,-0.350 32.799,-5.700 37.433,-8.375 42.066,-5.700"/>
<polygon points="51.332,-0.350 46.699,2.325 42.066,-0.350 42.066,-5.700 46.699,-8.375 51.332,-5.700"/>
<polygon points="60.599,-0.350 55.966,2.325 51.332,-0.350 51.332,-5.700 55.966,-8.375 60.599,-5.700"/>
<polygon points="69.865,-0.350 65.232,2.325 60.599,-0.350 60.599,-5.700 65.232,-8.375 69.865,-5.700"/>
<polygon points="-8.900,7.675 -13.533,10.350 -18.166,7.675 -18.166,2.325 -13.533,-0.350 -8.900,2.325"/>
<polygon points="0.367,7.675 -4.266,10.350 -8.900,7.675 -8.900,2.325 -4.266,-0.350 0.367,2.325"/>
<polygon points="9.633,7.675 5.000,10.350 0.367,7.675 0.367,2.325 5.000,-0.350 9.633,2.325"/>
<polygon points="18.900,7.675 14.266,10.350 9.633,7.675 9.633,2.325 14.266,-0.350 18.900,2.325"/>
<polygon points="28.166,7.675 23.533,10.350 18.900,7.675 18.900,2.325 23.533,-0.350 28.166,2.325"/>
<polygon points="37.433,7.675 32.799,10.350 28.166,7.675 28.166,2.325 32.799,-0.350 37.433,2.325"/>
<polygon points="46.699,7.675 42.066,10.350 37.433,7.675 37.433,2.325 42.066,-0.350 46.699,2.325"/>
<polygon points="55.966,7.675 51.332,10.350 46.699,7.675 46.699,2.325 51.332,-0.350 55.966,2.325"/>
<polygon points="65.232,7.675 60.599,10.350 55.966,7.675 55.966,2.325 60.599,-0.350 65.232,2.325"/>
<polygon points="-4.266,15.700 -8.900,18.375 -13.533,15.700 -13.533,10.350 -8.900,7.675 -4.266,10.350"/>
<polygon points="5.000,15.700 0.367,18.375 -4.266,15.700 -4.266,10.350 0.367,7.675 5.000,10.350"/>
<polygon points="14.266,15.700 9.633,18.375 5.000,15.700 5.000,10.350 9.633,7.675 14.266,10.350"/>
<polygon points="23.533,15.700 18.900,18.375 14.266,15.700 14.266,10.350 18.900,7.675 23.533,10.350"/>
<polygon points="32.799,15.700 28.166,18.375 23.533,15.700 23.533,10.350 28.166,7.675 32.799,10.350"/>
<polygon points="42.066,15.700 37.433,18.375 32.799,15.700 32.799,10.350 37.433,7.675 42.066,10.350"/>
<polygon points="51.332,15.700 46.699,18.375 42.066,15.700 42.066,10.350 46.699,7.675 51.332,10.350"/>
<polygon points="60.599,15.700 55.966,18.375 51.332,15.700 51.332,10.350 55.966,7.675 60.599,10.350"/>
<polygon points="69.865,15.700 65.232,18.375 60.599,15.700 60.599,10.350 65.232,7.675 69.865,10.350"/>
<polygon points="-8.900,23.725 -13.533,26.400 -18.166,23.725 -18.166,18.375 -13.533,15.700 -8.900,18.375"/>
<polygon points="0.367,23.725 -4.266,26.400 -8.900,23.725 -8.900,18.375 -4.266,15.700 0.367,18.375"/>
<polygon points="9.633,23.725 5.000,26.400 0.367,23.725 0.367,18.375 5.000,15.700 9.633,18.375"/>
<polygon points="18.900,23.725 14.266,26.400 9.633,23.725 9.633,18.375 14.266,15.700 18.900,18.375"/>
<polygon points="28.166,23.725 23.533,26.400 18.900,23.725 18.900,18.375 23.533,15.700 28.166,18.375"/>
<polygon points="37.433,23.725 32.799,26.400 28.166,23.725 28.166,18.375 32.799,15.700 37.433,18.375"/>
<polygon points="46.699,23.725 42.066,26.400 37.433,23.725 37.433,18.375 42.066,15.700 46.699,18.375"/>
<polygon points="55.966,23.725 51.332,26.400 46.699,23.725 46.699,18.375 51.332,15.700 55.966,18.375"/>
<polygon points="65.232,23.725 60.599,26.400 55.966,23.725 55.966,18.375 60.599,15.700 65.232,18.375"/>
<polygon points="-4.266,31.750 -8.900,34.425 -13.533,31.750 -13.533,26.400 -8.900,23.725 -4.266,26.400"/>
<polygon points="5.000,31.750 0.367,34.425 -4.266,31.750 -4.266,26.400 0.367,23.725 5.000,26.400"/>
<polygon points="14.266,31.750 9.633,34.425 5.000,31.750 5.000,26.400 9.633,23.725 14.266,26.400"/>
<polygon points="23.533,31.750 18.900,34.425 14.266,31.750 14.266,26.400 18.900,23.725 23.533,26.400"/>
<polygon points="32.799,31.750 28.166,34.425 23.533,31.750 23.533,26.400 28.166,23.725 32.799,26.400"/>
<polygon points="42.066,31.750 37.433,34.425 32.799,31.750 32.799,26.400 37.433,23.725 42.066,26.400"/>
<polygon points="51.332,31.750 46.699,34.425 42.066,31.750 42.066,26.400 46.699,23.725 51.332,26.400"/>
<polygon points="60.599,31.750 55.966,34.425 51.332,31.750 51.332,26.400 55.966,23.725 60.599,26.400"/>
<polygon points="69.865,31.750 65.232,34.425 60.599,31.750 60.599,26.400 65.232,23.725 69.865,26.400"/>
<polygon points="-8.900,39.775 -13.533,42.450 -18.166,39.775 -18.166,34.425 -13.533,31.750 -8.900,34.425"/>
<polygon points="0.367,39.775 -4.266,42.450 -8.900,39.775 -8.900,34.425 -4.266,31.750 0.367,34.425"/>
<polygon points="9.633,39.775 5.000,42.450 0.367,39.775 0.367,34.425 5.000,31.750 9.633,34.425"/>
<polygon points="18.900,39.775 14.266,42.450 9.633,39.775 9.633,34.425 14.266,31.750 18.900,34.425"/>
<polygon points="28.166,39.775 23.533,42.450 18.900,39.775 18.900,34.425 23.533,31.750 28.166,34.425"/>
<polygon points="37.433,39.775 32.799,42.450 28.166,39.775 28.166,34.425 32.799,31.750 37.433,34.425"/>
<polygon points="46.699,39.775 42.066,42.450 37.433,39.775 37.433,34.425 42.066,31.750 46.699,34.425"/>
<polygon points="55.966,39.775 51.332,42.450 46.699,39.775 46.699,34.425 51.332,31.750 55.966,34.425"/>
<polygon points="65.232,39.775 60.599,42.450 55.966,39.775 55.966,34.425 60.599,31.750 65.232,34.425"/>
<polygon points="-4.266,47.800 -8.900,50.475 -13.533,47.800 -13.533,42.450 -8.900,39.775 -4.266,42.450"/>
<polygon points="5.000,47.800 0.367,50.475 -4.266,47.800 -4.266,42.450 0.367,39.775 5.000,42.450"/>
<polygon points="14.266,47.800 9.633,50.475 5.000,47.800 5.000,42.450 9.633,39.775 14.266,42.450"/>
<polygon points="23.533,47.800 18.900,50.475 14.266,47.800 14.266,42.450 18.900,39.775 23.533,42.450"/>
<polygon points="32.799,47.800 28.166,50.475 23.533,47.800 23.533,42.450 28.166,39.775 32.799,42.450"/>
<polygon points="42.066,47.800 37.433,50.475 32.799,47.800 32.799,42.450 37.433,39.775 42.066,42.450"/>
<polygon points="51.332,47.800 46.699,50.475 42.066,47.800 42.066,42.450 46.699,39.775 51.332,42.450"/>
<polygon points="60.599,47.800 55.966,50.475 51.332,47.800 51.332,42.450 55.966,39.775 60.599,42.450"/>
<polygon points="69.865,47.800 65.232,50.475 60.599,47.800 60.599,42.450 65.232,39.775 69.865,42.450"/>
<polygon points="-8.900,55.825 -13.533,58.500 -18.166,55.825 -18.166,50.475 -13.533,47.800 -8.900,50.475"/>
<polygon points="0.367,55.825 -4.266,58.500 -8.900,55.825 -8.900,50.475 -4.266,47.800 0.367,50.475"/>
<polygon points="9.633,55.825 5.000,58.500 0.367,55.825 0.367,50.475 5.000,47.800 9.633,50.475"/>
<polygon points="18.900,55.825 14.266,58.500 9.633,55.825 9.633,50.475 14.266,47.800 18.900,50.475"/>
<polygon points="28.166,55.825 23.533,58.500 18.900,55.825 18.900,50.475 23.533,47.800 28.166,50.475"/>
<polygon points="37.433,55.825 32.799,58.500 28.166,55.825 28.166,50.475 32.799,47.800 37.433,50.475"/>
<polygon points="46.699,55.825 42.066,58.500 37.433,55.825 37.433,50.475 42.066,47.800 46.699,50.475"/>
<polygon points="55.966,55.825 51.332,58.500 46.699,55.825 46.699,50.475 51.332,47.800 55.966,50.475"/>
<polygon points="65.232,55.825 60.599,58.500 55.966,55.825 55.966,50.475 60.599,47.800 65.232,50.475"/>
<polygon points="-4.266,63.850 -8.900,66.525 -13.533,63.850 -13.533,58.500 -8.900,55.825 -4.266,58.500"/>
<polygon points="5.000,63.850 0.367,66.525 -4.266,63.850 -4.266,58.500 0.367,55.825 5.000,58.500"/>
<polygon points="14.266,63.850 9.633,66.525 5.000,63.850 5.000,58.500 9.633,55.825 14.266,58.500"/>
<polygon points="23.533,63.850 18.900,66.525 14.266,63.850 14.266,58.500 18.900,55.825 23.533,58.500"/>
<polygon points="32.799,63.850 28.166,66.525 23.533,63.850 23.533,58.500 28.166,55.825 32.799,58.500"/>
<polygon points="42.066,63.850 37.433,66.525 32.799,63.850 32.799,58.500 37.433,55.825 42.066,58.500"/>
<polygon points="51.332,63.850 46.699,66.525 42.066,63.850 42.066,58.500 46.699,55.825 51.332,58.500"/>
<polygon points="60.599,63.850 55.966,66.525 51.332,63.850 51.332,58.500 55.966,55.825 60.599,58.500"/>
<polygon points="69.865,63.850 65.232,66.525 60.599,63.850 60.599,58.500 65.232,55.825 69.865,58.500"/>
<polygon points="-8.900,71.875 -13.533,74.550 -18.166,71.875 -18.166,66.525 -13.533,63.850 -8.900,66.525"/>
<polygon points="0.367,71.875 -4.266,74.550 -8.900,71.875 -8.900,66.525 -4.266,63.850 0.367,66.525"/>
<polygon points="9.633,71.875 5.000,74.550 0.367,71.875 0.367,66.525 5.000,63.850 9.633,66.525"/>
<polygon points="18.900,71.875 14.266,74.550 9.633,71.875 9.633,66.525 14.266,63.850 18.900,66.525"/>
<polygon points="28.166,71.875 23.533,74.550 18.900,71.875 18.900,66.525 23.533,63.850 28.166,66.525"/>
<polygon points="37.433,71.875 32.799,74.550 28.166,71.875 28.166,66.525 32.799,63.850 37.433,66.525"/>
<polygon points="46.699,71.875 42.066,74.550 37.433,71.875 37.433,66.525 42.066,63.850 46.699,66.525"/>
<polygon points="55.966,71.875 51.332,74.550 46.699,71.875 46.699,66.525 51.332,63.850 55.966,66.525"/>
<polygon points="65.232,71.875 60.599,74.550 55.966,71.875 55.966,66.525 60.599,63.850 65.232,66.525"/>
    </g>
    <mask id="moltrace-mark-cutout" maskUnits="userSpaceOnUse" x="0" y="0" width="64" height="64">
      <rect width="64" height="64" fill="#fff"/>
      <text x="32" y="31.2" dy="0.33em"
        font-family="system-ui, -apple-system, BlinkMacSystemFont, 'Segoe UI', sans-serif"
        font-size="36" font-weight="900" text-anchor="middle"
        text-rendering="geometricPrecision" fill="#000">m</text>
    </mask>
    <filter id="moltrace-mark-glow" x="-50%" y="-50%" width="200%" height="200%">
      <feGaussianBlur in="SourceGraphic" stdDeviation="1.1" result="blur"/>
      <feFlood flood-color="#26C6FF" flood-opacity="0.85" result="flood"/>
      <feComposite in="flood" in2="blur" operator="in" result="coloredBlur"/>
      <feMerge>
        <feMergeNode in="coloredBlur"/>
        <feMergeNode in="coloredBlur"/>
        <feMergeNode in="SourceGraphic"/>
      </feMerge>
    </filter>
    <filter id="moltrace-mark-lift" x="-30%" y="-30%" width="160%" height="160%">
      <feGaussianBlur in="SourceAlpha" stdDeviation="0.6" result="blur"/>
      <feOffset in="blur" dx="0" dy="0.9" result="offset"/>
      <feComponentTransfer in="offset" result="shadow">
        <feFuncA type="linear" slope="0.7"/>
      </feComponentTransfer>
      <feMerge>
        <feMergeNode in="shadow"/>
        <feMergeNode in="SourceGraphic"/>
      </feMerge>
    </filter>
    <filter id="moltrace-mark-engrave" x="-20%" y="-20%" width="140%" height="140%">
      <feGaussianBlur in="SourceAlpha" stdDeviation="0.8" result="blur"/>
      <feOffset in="blur" dy="1.4" result="offsetDown"/>
      <feComposite in="SourceAlpha" in2="offsetDown" operator="out" result="topRing"/>
      <feFlood flood-color="#000" flood-opacity="0.9" result="darkColor"/>
      <feComposite in="darkColor" in2="topRing" operator="in" result="topShadow"/>
      <feOffset in="blur" dy="-1.4" result="offsetUp"/>
      <feComposite in="SourceAlpha" in2="offsetUp" operator="out" result="bottomRing"/>
      <feFlood flood-color="#9DD7F2" flood-opacity="0.6" result="lightColor"/>
      <feComposite in="lightColor" in2="bottomRing" operator="in" result="bottomHighlight"/>
      <feMerge>
        <feMergeNode in="SourceGraphic"/>
        <feMergeNode in="bottomHighlight"/>
        <feMergeNode in="topShadow"/>
      </feMerge>
    </filter>
    <linearGradient id="moltrace-mark-mgrad" x1="0" y1="0" x2="0" y2="1">
      <stop offset="0%" stop-color="#FFFFFF"/>
      <stop offset="55%" stop-color="#F2FAFF"/>
      <stop offset="100%" stop-color="#CFE9FF"/>
    </linearGradient>
    <linearGradient id="moltrace-mark-topface" x1="0" y1="0" x2="0" y2="1">
      <stop offset="0%" stop-color="#2E78AC"/>
      <stop offset="100%" stop-color="#0F3A5C"/>
    </linearGradient>
    <linearGradient id="moltrace-mark-rightface" x1="0" y1="0" x2="0" y2="1">
      <stop offset="0%" stop-color="#194C70"/>
      <stop offset="100%" stop-color="#062337"/>
    </linearGradient>
    <linearGradient id="moltrace-mark-leftface" x1="0" y1="0" x2="0" y2="1">
      <stop offset="0%" stop-color="#0D3050"/>
      <stop offset="100%" stop-color="#021326"/>
    </linearGradient>
  </defs>
  <g clip-path="url(#moltrace-mark-hex)">
    <rect width="64" height="64" fill="#051f3a"/>
    <g mask="url(#moltrace-mark-cutout)">
      <polygon points="16,0 48,0 32,32 0,32" fill="url(#moltrace-mark-topface)"/>
      <polygon points="48,0 64,32 48,64 32,32" fill="url(#moltrace-mark-rightface)"/>
      <polygon points="32,32 48,64 16,64 0,32" fill="url(#moltrace-mark-leftface)"/>
    </g>
    <g mask="url(#moltrace-mark-cutout)" filter="url(#moltrace-mark-glow)" stroke="#26C6FF" stroke-width="1.2" stroke-linejoin="miter" fill="none">
      <polygon points="26.464,16.000 22.000,18.000 19.536,16.000 21.536,12.000 26.000,10.000 28.464,12.000"/>
      <polygon points="52.732,28.464 50.000,27.000 49.268,21.536 51.268,17.536 54.000,19.000 54.732,24.464"/>
      <polygon points="31.464,55.000 29.000,57.000 24.536,55.000 22.536,51.000 25.000,49.000 29.464,51.000"/>
    </g>
    <g mask="url(#moltrace-mark-cutout)" filter="url(#moltrace-mark-glow)" stroke="#26C6FF" stroke-width="1.4" stroke-linecap="round" fill="none">
      <line x1="32" y1="32" x2="48" y2="0"/>
      <line x1="32" y1="32" x2="48" y2="64"/>
      <line x1="32" y1="32" x2="0" y2="32"/>
    </g>
    <g filter="url(#moltrace-mark-engrave)">
      <text x="32" y="31.2" dy="0.33em"
        font-family="system-ui, -apple-system, BlinkMacSystemFont, 'Segoe UI', sans-serif"
        font-size="36" font-weight="900" text-anchor="middle"
        text-rendering="geometricPrecision" fill="url(#moltrace-mark-mgrad)">m</text>
    </g>
    <polygon points="16,0 48,0 64,32 48,64 16,64 0,32" fill="none" stroke="#26C6FF" stroke-width="4" stroke-linejoin="miter"/>
  </g>
</svg>