<?xml version="1.0" encoding="UTF-8"?>
<svg xmlns="http://www.w3.org/2000/svg" width="320" height="80" viewBox="0 0 320 80" fill="none" role="img" aria-labelledby="moltrace-wordmark-title">
  <title id="moltrace-wordmark-title">MolTrace</title>
  <g transform="translate(8 8)">
    <svg x="0" y="0" width="64" height="64" viewBox="0 0 64 64" fill="none" aria-hidden="true">
  <defs>
    <clipPath id="moltrace-wordmark-mark-hex" clipPathUnits="userSpaceOnUse">
      <polygon points="16,0 48,0 64,32 48,64 16,64 0,32"/>
    </clipPath>
    <mask id="moltrace-mark-cutout" maskUnits="userSpaceOnUse" x="0" y="0" width="64" height="64">
      <rect width="64" height="64" fill="#fff"/>
      <text x="32" y="32" dy="0.33em"
        font-family="system-ui, -apple-system, BlinkMacSystemFont, 'Segoe UI', sans-serif"
        font-size="40" font-weight="900" text-anchor="middle"
        text-rendering="geometricPrecision" fill="#000">m</text>
    </mask>
    <filter id="moltrace-mark-glow" x="-50%" y="-50%" width="200%" height="200%">
      <feGaussianBlur in="SourceGraphic" stdDeviation="1.1" result="blur"/>
      <feFlood flood-color="#26C6FF" flood-opacity="0.85" result="flood"/>
      <feComposite in="flood" in2="blur" operator="in" result="coloredBlur"/>
      <feMerge>
        <feMergeNode in="coloredBlur"/>
        <feMergeNode in="coloredBlur"/>
        <feMergeNode in="SourceGraphic"/>
      </feMerge>
    </filter>
    <filter id="moltrace-mark-engrave" x="-20%" y="-20%" width="140%" height="140%">
      <feGaussianBlur in="SourceAlpha" stdDeviation="0.8" result="blur"/>
      <feOffset in="blur" dy="1.4" result="offsetDown"/>
      <feComposite in="SourceAlpha" in2="offsetDown" operator="out" result="topRing"/>
      <feFlood flood-color="#000" flood-opacity="0.9" result="darkColor"/>
      <feComposite in="darkColor" in2="topRing" operator="in" result="topShadow"/>
      <feOffset in="blur" dy="-1.4" result="offsetUp"/>
      <feComposite in="SourceAlpha" in2="offsetUp" operator="out" result="bottomRing"/>
      <feFlood flood-color="#9DD7F2" flood-opacity="0.6" result="lightColor"/>
      <feComposite in="lightColor" in2="bottomRing" operator="in" result="bottomHighlight"/>
      <feMerge>
        <feMergeNode in="SourceGraphic"/>
        <feMergeNode in="bottomHighlight"/>
        <feMergeNode in="topShadow"/>
      </feMerge>
    </filter>
    <linearGradient id="moltrace-mark-mrecess" x1="0" y1="0" x2="0" y2="1">
      <stop offset="0%" stop-color="#FFFFFF"/>
      <stop offset="100%" stop-color="#FFFFFF"/>
    </linearGradient>
    <linearGradient id="moltrace-mark-topface" x1="0" y1="0" x2="0" y2="1">
      <stop offset="0%" stop-color="#2E78AC"/>
      <stop offset="100%" stop-color="#0F3A5C"/>
    </linearGradient>
    <linearGradient id="moltrace-mark-rightface" x1="0" y1="0" x2="0" y2="1">
      <stop offset="0%" stop-color="#194C70"/>
      <stop offset="100%" stop-color="#062337"/>
    </linearGradient>
    <linearGradient id="moltrace-mark-leftface" x1="0" y1="0" x2="0" y2="1">
      <stop offset="0%" stop-color="#0D3050"/>
      <stop offset="100%" stop-color="#021326"/>
    </linearGradient>
  </defs>
  <g clip-path="url(#moltrace-wordmark-mark-hex)">
    <rect width="64" height="64" fill="#051f3a"/>
    <g mask="url(#moltrace-mark-cutout)">
      <polygon points="16,0 48,0 32,32 0,32" fill="url(#moltrace-mark-topface)"/>
      <polygon points="48,0 64,32 48,64 32,32" fill="url(#moltrace-mark-rightface)"/>
      <polygon points="32,32 48,64 16,64 0,32" fill="url(#moltrace-mark-leftface)"/>
    </g>
    <g mask="url(#moltrace-mark-cutout)" filter="url(#moltrace-mark-glow)" stroke-width="1.2" stroke-linejoin="miter" stroke-linecap="butt" fill="none">
      <g transform="translate(24 14) matrix(1 0 -0.5 1 0 0) translate(-24 -14)">
        <polygon points="27.464,16.000 24.000,18.000 20.536,16.000 20.536,12.000 24.000,10.000 27.464,12.000" stroke="#26C6FF"/>
      </g>
      <g transform="translate(52 23) matrix(0.5 1 -0.5 1 0 0) translate(-52 -23)">
        <polygon points="55.464,25.000 52.000,27.000 48.536,25.000 48.536,21.000 52.000,19.000 55.464,21.000" stroke="#26C6FF"/>
      </g>
      <g transform="translate(27 53) matrix(1 0 0.5 1 0 0) translate(-27 -53)">
        <polygon points="30.464,55.000 27.000,57.000 23.536,55.000 23.536,51.000 27.000,49.000 30.464,51.000" stroke="#26C6FF"/>
      </g>
    </g>
    <g mask="url(#moltrace-mark-cutout)" filter="url(#moltrace-mark-glow)" stroke="#26C6FF" stroke-width="1.4" stroke-linecap="round" fill="none">
      <line x1="32" y1="32" x2="48" y2="0"/>
      <line x1="32" y1="32" x2="48" y2="64"/>
      <line x1="32" y1="32" x2="0" y2="32"/>
    </g>
    <g
      font-family="system-ui, -apple-system, BlinkMacSystemFont, 'Segoe UI', sans-serif"
      font-size="40"
      font-weight="900"
      text-anchor="middle"
      text-rendering="geometricPrecision"
    >
      <text x="32" y="32" dy="0.33em" fill="url(#moltrace-mark-mrecess)" filter="url(#moltrace-mark-engrave)">m</text>
      <text x="31.6" y="31.1" dy="0.33em" fill="none" stroke="#2E78AC" stroke-width="1.05" opacity="0.58">m</text>
      <text x="32.7" y="33.1" dy="0.33em" fill="none" stroke="#062337" stroke-width="2.1" opacity="0.72">m</text>
    </g>
  </g>
  <polygon points="16,0 48,0 64,32 48,64 16,64 0,32" fill="none" stroke="#26C6FF" stroke-width="4" stroke-linejoin="miter"/>
</svg>
  </g>
  <text
    x="88"
    y="49"
    font-family="system-ui, -apple-system, BlinkMacSystemFont, 'Segoe UI', sans-serif"
    font-size="32"
    font-weight="700"
    letter-spacing="0"
    text-rendering="geometricPrecision"
  ><tspan fill="#111827">Mol</tspan><tspan fill="#26C6FF" font-weight="800">Trace</tspan></text>
</svg>